Poster: 
http://imgh.us/Street-Dance-2-Poster-Legend.jpg

Info:

Format : AVI
Format/Info : Audio Video Interleave
File size : 699 MiB
Duration : 1h 21mn
Overall bit rate mode : Variable
Overall bit rate : 1 200 Kbps
Writing application : VirtualDubMod 1.5.10.2 (build 2540/release)
Writing library : VirtualDubMod build 2540/release

Video
ID : 0
Format : MPEG-4 Visual
Format profile : Advanced Simple@L5
Format settings, BVOP : 2
Format settings, QPel : No
Format settings, GMC : No warppoints
Format settings, Matrix : Default (H.263)
Muxing mode : Packed bitstream
Codec ID : XVID
Codec ID/Hint : XviD
Duration : 1h 21mn
Bit rate : 1 062 Kbps
Width : 640 pixels
Height : 336 pixels
Display aspect ratio : 1.905
Frame rate : 25.000 fps
Color space : YUV
Chroma subsampling : 4:2:0
Bit depth : 8 bits
Scan type : Progressive
Compression mode : Lossy
Bits/(Pixel*Frame) : 0.197
Stream size : 619 MiB (88%)
Writing library : XviD 1.2.1 (UTC 2008-12-04)

Audio
ID : 1
Format : MPEG Audio
Format version : Version 1
Format profile : Layer 3
Mode : Joint stereo
Mode extension : MS Stereo
Codec ID : 55
Codec ID/Hint : MP3
Duration : 1h 21mn
Bit rate mode : Variable
Bit rate : 128 Kbps
Channel(s) : 2 channels
Sampling rate : 48.0 KHz
Compression mode : Lossy
Stream size : 73.2 MiB (10%)
Alignment : Aligned on interleaves
Interleave, duration : 24 ms (0.60 video frame)
Interleave, preload duration : 128 ms
Writing library : LAME3.90.3



SCREENS: 
http://imgh.us/done-sd2-002.jpg 
http://imgh.us/done-sd2-005.jpg 
http://imgh.us/done-sd2-008.jpg 
http://imgh.us/done-sd2-015.jpg 
http://imgh.us/done-sd2-017.jpg 
http://imgh.us/done-sd2-019.jpg
